<?xml version="1.0" encoding="utf-8"?>
<!-- Svg Vector Icons : http://www.onlinewebfonts.com/icon -->
<!DOCTYPE svg PUBLIC "-//W3C//DTD SVG 1.1//EN" "http://www.w3.org/Graphics/SVG/1.1/DTD/svg11.dtd">
<svg version="1.1" xmlns="http://www.w3.org/2000/svg" xmlns:xlink="http://www.w3.org/1999/xlink" x="0px" y="0px" viewBox="0 0 1000 1000" enable-background="new 0 0 1000 1000" xml:space="preserve">
<metadata> Svg Vector Icons : http://www.onlinewebfonts.com/icon </metadata>
<g><path d="M565.5,454.9H280.8c-19.5,0-35.4,15.8-35.4,35.4c0,19.5,15.8,35.4,35.4,35.4h284.8c19.5,0,35.4-15.8,35.4-35.4C600.9,470.7,585.1,454.9,565.5,454.9z"/><path d="M565.5,622.2H280.8c-19.5,0-35.4,15.8-35.4,35.4c0,19.5,15.8,35.4,35.4,35.4h284.8c19.5,0,35.4-15.8,35.4-35.4C600.9,638.1,585.1,622.2,565.5,622.2z"/><path d="M911,244L717.3,22.1c-6.7-7.7-16.4-12.1-26.6-12.1h-410c-19.5,0-35.4,15.8-35.4,35.4v112.5h-91.3c-40.7,0-73.8,32.9-73.8,73.4v685.2c0,40.5,33.1,73.5,73.8,73.5h538.1c40.7,0,73.8-33,73.8-73.5v-49.4h118.4c19.5,0,35.4-15.8,35.4-35.4V267.3C919.7,258.7,916.6,250.5,911,244z M695.3,916.5c0,1.5-1.4,2.7-3.1,2.7H154.1c-1.7,0-3.1-1.2-3.1-2.7V231.3c0-1.5,1.4-2.7,3.1-2.7h408.3l132.9,131.7V916.5z M849,796.4h-83V345.5c0-9.4-3.8-18.5-10.5-25.1L601.8,168.1c-6.6-6.6-15.6-10.2-24.9-10.2H316.1V80.7h358.5L849,280.5V796.4z"/></g>
</svg>